<svg xmlns="http://www.w3.org/2000/svg" viewBox="0 0 32 32" fill="none" aria-hidden="true">
  <defs>
    <linearGradient id="altgoGrad" x1="4" y1="4" x2="28" y2="28" gradientUnits="userSpaceOnUse">
      <stop stop-color="#6366f1"/>
      <stop offset="1" stop-color="#a78bfa"/>
    </linearGradient>
  </defs>
  <rect width="32" height="32" rx="8" fill="url(#altgoGrad)"/>
  <path fill="#fff" fill-opacity="0.95" d="M16 7.5c-1.38 0-2.5 1.12-2.5 2.5v5.5a2.5 2.5 0 1 0 5 0V10c0-1.38-1.12-2.5-2.5-2.5zm-4.25 7.25V16a4.25 4.25 0 0 0 3.4 4.17V22.5h-1.75v1.5h6v-1.5h-1.75v-2.33A4.25 4.25 0 0 0 20.25 16v-1.25h-1.5V16a2.75 2.75 0 1 1-5.5 0v-1.25h-1.5z"/>
</svg>
